<svg xmlns="http://www.w3.org/2000/svg" xmlns:xlink="http://www.w3.org/1999/xlink" width="396" height="318" viewBox="0 0 396 318">
  <defs>
    <clipPath id="clip-path">
      <rect id="Rectángulo_461789" data-name="Rectángulo 461789" width="358.313" height="239.127" fill="none"/>
    </clipPath>
  </defs>
  <g id="Grupo_1194920" data-name="Grupo 1194920" transform="translate(-497.629 -6362.17)">
    <rect id="Rectángulo_461738" data-name="Rectángulo 461738" width="396" height="318" transform="translate(497.629 6362.17)" fill="#fdecce"/>
    <g id="Grupo_1194784" data-name="Grupo 1194784" transform="translate(516.473 6422.624)">
      <rect id="Rectángulo_461781" data-name="Rectángulo 461781" width="82.252" height="104.956" transform="translate(87.467 6.656)" fill="#ebe8ff"/>
      <rect id="Rectángulo_461782" data-name="Rectángulo 461782" width="82.252" height="3.817" transform="translate(87.467 57.225)" fill="#fff"/>
      <rect id="Rectángulo_461783" data-name="Rectángulo 461783" width="5.01" height="104.956" transform="translate(126.089 6.656)" fill="#fff"/>
      <g id="Grupo_1194783" data-name="Grupo 1194783">
        <g id="Grupo_1194782" data-name="Grupo 1194782" clip-path="url(#clip-path)">
          <path id="Trazado_1014919" data-name="Trazado 1014919" d="M140.879,415.394h-1.7l.054,89c0,1.159.37,2.1.825,2.1s.825-.94.825-2.1Z" transform="translate(-97.939 -292.318)" fill="#160959"/>
          <path id="Trazado_1014920" data-name="Trazado 1014920" d="M74.193,53.464a13.563,13.563,0,0,0-14.69,0v.345a17.025,17.025,0,0,1-9,15.01c-2.577,1.38-5.345,2.94-7.778,4.482a13.114,13.114,0,0,0-5.644,14.3c1.652,6.531,5.6,16.956,14.9,31.8l-.4,3.956s-17.066,28.882-7.768,57.566H90.166s10.784-24.654-7.319-56.577l-.2-4.946s9.99-16.25,14.231-30.388a13.036,13.036,0,0,0-4.453-13.991,97.9,97.9,0,0,0-9.873-6.912,17.07,17.07,0,0,1-8.36-14.649" transform="translate(-25.812 -36.103)" fill="#160959"/>
          <path id="Trazado_1014921" data-name="Trazado 1014921" d="M57.083,218.433C42.474,243.34,46.1,278.109,50.305,295.809c1.8,7.562,3.7,12.011,4.326,11.241A31.3,31.3,0,0,1,67.836,295.7a70.444,70.444,0,0,1,8.583-3.346c10.192-3.4,19.887-5.712,23.106-17.627,4.011-14.832,1.791-28.9-1.563-39.465-.966-3.045-2.028-5.8-3.059-8.191a79.944,79.944,0,0,0-4.453-8.847,7.181,7.181,0,0,1-.994-3.286l0-.059a7.226,7.226,0,0,1,1.158-4.3c8.036-12.43,10.593-22.112,10.593-22.112-10.993-7.485-24.058-2.968-27.586,3.97-2.984-7.835-19.751-9.491-28.042-3.97.707,3.624,6.072,13.365,9.59,19.486l.009.009c.725,1.263,1.372,2.37,1.883,3.241a7.2,7.2,0,0,1,.989,3.633c0,.241-.014.483-.036.725a7.08,7.08,0,0,1-.926,2.876" transform="translate(-32.071 -129.905)" fill="#b76df7"/>
          <path id="Trazado_1014922" data-name="Trazado 1014922" d="M124.819,327.824a.1.1,0,0,1-.09-.155,23.9,23.9,0,0,0,2.942-9.333,48.3,48.3,0,0,0,.043-6.5,35.038,35.038,0,0,1,.407-8.836c1.246-5.687,5.157-10.3,8.939-14.756l.052-.061c3.975-4.686,7.619-9.353,8.532-14.919a.1.1,0,1,1,.2.033c-.922,5.618-4.584,10.31-8.579,15.019l-.052.06c-3.766,4.439-7.66,9.03-8.895,14.666a34.9,34.9,0,0,0-.4,8.784,48.379,48.379,0,0,1-.044,6.529,24.1,24.1,0,0,1-2.967,9.415.1.1,0,0,1-.09.054" transform="translate(-87.764 -192.238)" fill="#160959"/>
          <path id="Trazado_1014923" data-name="Trazado 1014923" d="M134.072,440.447h-.017a.1.1,0,0,1-.086-.119c.612-3.832,2.954-7.07,5.218-10.2.833-1.153,1.7-2.345,2.457-3.547a33.42,33.42,0,0,0,4.82-21.9.1.1,0,0,1,.206-.027,33.633,33.633,0,0,1-4.851,22.037c-.765,1.208-1.628,2.4-2.464,3.558-2.25,3.112-4.576,6.329-5.181,10.113a.1.1,0,0,1-.1.087" transform="translate(-94.275 -284.696)" fill="#160959"/>
          <path id="Trazado_1014924" data-name="Trazado 1014924" d="M365.675,687.828H20.295l28.234-24.155H337.441Z" transform="translate(-14.282 -467.036)" fill="#ebe8ff"/>
          <path id="Trazado_1014925" data-name="Trazado 1014925" d="M358.165,744.994H.148a.148.148,0,1,1,0-.3H358.165a.148.148,0,0,1,0,.3" transform="translate(0 -524.054)" fill="#160959"/>
          <path id="Trazado_1014926" data-name="Trazado 1014926" d="M684.349,150.613c-1.354-3.507-11.185-2.6-11.179-11.53.008-11.706-.248-26.7-11.488-33.587-3.981-2.293-9.779-3.542-13.513-.914-6.191-3.829-16.045-.416-21.028,9.722-5.059,10.292-1.377,24.721-8.455,30.851-1.951,1.69-5.385,2.025-7.185,3.876-2.414,2.483-2.524,7.926,1.514,12.015,11.849,12,37.55,10.681,53,7.919,9.207-1.887,21.946-8.585,18.335-18.353" transform="translate(-429.131 -72.521)" fill="#160959"/>
          <path id="Trazado_1014927" data-name="Trazado 1014927" d="M442.218,347.117C430.972,361.034,417.887,379.844,405.85,397c-17.572,29.049,14.418,54.422,36.553,24.183,12.856-18.1,23.438-32.059,30.118-53.513,5.547-17.815-12.582-42.483-30.3-20.554" transform="translate(-282.034 -238.195)" fill="#ffb5b6"/>
          <path id="Trazado_1014928" data-name="Trazado 1014928" d="M711.837,286.741s4.037,10.017,8.438,9.673c4.172-.326,7.253-6.188,7.269-10.44-4.793-.566-11.37-1.179-15.707.766" transform="translate(-500.929 -200.851)" fill="#ffb5b6"/>
          <path id="Trazado_1014929" data-name="Trazado 1014929" d="M710.774,123.812c-2.909-12.767-13.224-15.281-19.173-11.718-5.949-3.563-16.263-1.049-19.173,11.718-2.414,10.59,4.189,28.224,19.172,28.226h0c14.983,0,21.585-17.635,19.172-28.226" transform="translate(-472.855 -77.844)" fill="#160959"/>
          <path id="Trazado_1014930" data-name="Trazado 1014930" d="M679.279,197.932s-2.835-4.768-6.122-1.891c-3.3,2.894.705,13,5.25,7.918Z" transform="translate(-472.856 -137.307)" fill="#ffb5b6"/>
          <path id="Trazado_1014931" data-name="Trazado 1014931" d="M784.6,199.694s2.835-4.768,6.122-1.891c3.3,2.894-.705,13-5.25,7.918Z" transform="translate(-552.133 -138.547)" fill="#ffb5b6"/>
          <path id="Trazado_1014932" data-name="Trazado 1014932" d="M716.559,154.443c-1.48-3.859-6.818-9.265-12.149-9.369-5.384-.106-10.76,5.13-12.146,9.369-1.416,4.329-5.363,13.8-.243,19.131a16.477,16.477,0,0,0,5.445,3.8c2.629,1.121,3.906,2.758,3.3,5.552-.193.891-2.36,3.9-4.37,4.512,2.829,5.518,12.871,5.766,15.7-.053a6.112,6.112,0,0,1-4.388-4.1c-.85-2.911.885-4.739,3.669-5.942a17.6,17.6,0,0,0,5.279-3.582c5.491-5.317,1.552-15.005-.1-19.312" transform="translate(-485.193 -102.09)" fill="#ffb5b6"/>
          <path id="Trazado_1014933" data-name="Trazado 1014933" d="M721.063,256.464a7.926,7.926,0,0,0,5.642,2.655c1.489-.008,3.158-.381,5.259-2.655a11.079,11.079,0,0,1-5.3,1.054,12.363,12.363,0,0,1-5.6-1.054" transform="translate(-507.422 -180.477)" fill="#160959"/>
          <path id="Trazado_1014934" data-name="Trazado 1014934" d="M712.531,132.359c-4.035-4.845-11.737-2.905-13.776-1.7,0,0-10.5-6.276-15.981,7.732-2.055,5.249.1,10.537,1.984,11.2,0,0,.606-4.508,2.554-4.59,3.564.12,8.859-.947,10.86-3.433,1.035-1.286.668-4.114.3-6.067,1.887.876,2.983,2.427,2.983,5.865-.287,4.416,10.314.91,12.118,8.225,5.1-3.183,1.872-13.72-1.046-17.225" transform="translate(-479.889 -90.947)" fill="#160959"/>
          <path id="Trazado_1014935" data-name="Trazado 1014935" d="M733.283,230.98a4.769,4.769,0,0,1-1.038,2.718,3.77,3.77,0,0,1-6.436.143,4.823,4.823,0,0,1-1.174-2.73,13.715,13.715,0,0,0,8.647-.131" transform="translate(-509.936 -162.544)" fill="#160959"/>
          <path id="Trazado_1014936" data-name="Trazado 1014936" d="M735.033,238.8a3.77,3.77,0,0,1-6.436.143,7.461,7.461,0,0,1,3.253-.71,7.591,7.591,0,0,1,3.183.566" transform="translate(-512.724 -167.651)" fill="#ff548a"/>
          <path id="Trazado_1014937" data-name="Trazado 1014937" d="M711.639,186.8a.147.147,0,0,1-.1-.035,7.612,7.612,0,0,0-1.813-1.262,3.713,3.713,0,0,0-4.092.758.148.148,0,0,1-.208-.211,4.01,4.01,0,0,1,4.419-.817,7.834,7.834,0,0,1,1.886,1.308.147.147,0,0,1-.1.26" transform="translate(-496.389 -130.117)" fill="#160959"/>
          <path id="Trazado_1014938" data-name="Trazado 1014938" d="M738.683,206.981a.148.148,0,0,1-.054-.286,4.355,4.355,0,0,0,1.434-.781,1.394,1.394,0,0,0,.454-1.376,2.125,2.125,0,0,0-.555-.759c-.066-.068-.132-.135-.194-.2a4.287,4.287,0,0,1-.8-4.4.148.148,0,0,1,.275.11,3.985,3.985,0,0,0,.747,4.091c.061.066.124.132.188.2a2.375,2.375,0,0,1,.623.872,1.656,1.656,0,0,1-.532,1.686,4.648,4.648,0,0,1-1.528.841.143.143,0,0,1-.055.011" transform="translate(-519.717 -140.096)" fill="#160959"/>
          <path id="Trazado_1014939" data-name="Trazado 1014939" d="M701.53,197.927s1.872,4.846,8.495.768c0,0-1.617-4.226-4.9-4.171s-3.6,3.4-3.6,3.4" transform="translate(-493.676 -136.889)" fill="#fff"/>
          <path id="Trazado_1014940" data-name="Trazado 1014940" d="M709.672,198.492a.148.148,0,0,1-.138-.1c-.016-.041-1.6-4.076-4.7-4.076h-.06a3.537,3.537,0,0,0-3.453,3.269.146.146,0,0,1-.161.134.148.148,0,0,1-.134-.161c0-.035.368-3.48,3.742-3.537h.068c3.3,0,4.9,4.091,4.97,4.266a.148.148,0,0,1-.085.191.156.156,0,0,1-.053.009" transform="translate(-493.324 -136.538)" fill="#160959"/>
          <path id="Trazado_1014941" data-name="Trazado 1014941" d="M711.766,200.063a2.618,2.618,0,1,1-2.656-2.445,2.554,2.554,0,0,1,2.656,2.445" transform="translate(-497.2 -139.066)" fill="#160959"/>
          <path id="Trazado_1014942" data-name="Trazado 1014942" d="M706.536,201.674a.535.535,0,1,1,.544.526.535.535,0,0,1-.544-.526" transform="translate(-497.199 -141.538)" fill="#fff"/>
          <path id="Trazado_1014943" data-name="Trazado 1014943" d="M698.378,204.755a1.944,1.944,0,0,1-1.182-.492.148.148,0,0,1,.212-.207,1.625,1.625,0,0,0,1.029.4.145.145,0,0,1,.161.134.148.148,0,0,1-.134.161c-.028,0-.057,0-.086,0" transform="translate(-490.597 -143.566)" fill="#160959"/>
          <path id="Trazado_1014944" data-name="Trazado 1014944" d="M753.076,188a.148.148,0,0,1-.09-.266,7.852,7.852,0,0,1,1.956-1.2,4.01,4.01,0,0,1,4.367,1.061.148.148,0,1,1-.22.2,3.713,3.713,0,0,0-4.044-.982,7.628,7.628,0,0,0-1.88,1.159.144.144,0,0,1-.089.031" transform="translate(-529.845 -131.086)" fill="#160959"/>
          <path id="Trazado_1014945" data-name="Trazado 1014945" d="M757.852,198.868s-2.137,4.736-8.524.3c0,0,1.848-4.13,5.12-3.893s3.4,3.6,3.4,3.6" transform="translate(-527.312 -137.408)" fill="#fff"/>
          <path id="Trazado_1014946" data-name="Trazado 1014946" d="M748.975,198.959a.148.148,0,0,1-.135-.209c.077-.172,1.924-4.226,5.266-3.981,3.366.243,3.54,3.7,3.541,3.739a.148.148,0,0,1-.142.154.152.152,0,0,1-.154-.142,3.543,3.543,0,0,0-3.267-3.455c-3.134-.23-4.956,3.766-4.974,3.806a.148.148,0,0,1-.135.088" transform="translate(-526.96 -137.054)" fill="#160959"/>
          <path id="Trazado_1014947" data-name="Trazado 1014947" d="M755.755,201.242a2.533,2.533,0,1,0,2.686-2.144,2.434,2.434,0,0,0-2.686,2.144" transform="translate(-531.831 -140.103)" fill="#160959"/>
          <path id="Trazado_1014948" data-name="Trazado 1014948" d="M769.656,200.784a.549.549,0,1,0,.426.65.55.55,0,0,0-.426-.65" transform="translate(-541.152 -141.286)" fill="#fff"/>
          <path id="Trazado_1014949" data-name="Trazado 1014949" d="M777.87,206.336a1.031,1.031,0,0,1-.147-.01.148.148,0,0,1-.125-.168.146.146,0,0,1,.168-.125,1.619,1.619,0,0,0,1.049-.343.148.148,0,1,1,.2.218,1.971,1.971,0,0,1-1.146.428" transform="translate(-547.205 -144.72)" fill="#160959"/>
          <path id="Trazado_1014950" data-name="Trazado 1014950" d="M500.048,307.24c-12.266,9.3-31.531,37-31.531,37l35.518,28.793,23.088-28.555,5.83-50.094c-7.221.564-21.737,4.39-32.9,12.854" transform="translate(-329.702 -207.163)" fill="#b0caff"/>
          <path id="Trazado_1014951" data-name="Trazado 1014951" d="M588.394,436.8l7.735-51.8,1.493,42.2Z" transform="translate(-414.061 -270.929)" fill="#160959"/>
          <path id="Trazado_1014952" data-name="Trazado 1014952" d="M522.033,462.144a.1.1,0,0,1-.052-.014,179.373,179.373,0,0,1-29.347-21.718.1.1,0,1,1,.138-.155,179.16,179.16,0,0,0,29.313,21.693.1.1,0,0,1-.052.193" transform="translate(-346.649 -309.797)" fill="#fff"/>
          <path id="Trazado_1014953" data-name="Trazado 1014953" d="M671.889,393.395c7.387-.677,14.115-1.606,14-1.6-.922.05-1.871-32.28-4.625-63.772l-.057-33.688a.028.028,0,0,0-.017-.007l-.006-.394c-.6-.8-2.957-1.657-6.194-2.472-8.3-2.979-25.275-4.411-25.275-4.411-4.813,9.313-9.389,6.421-13.895,0,0,0-19.907,4.3-25.368,6.909-10.33,12.4-7.873,57.284-7.58,98.31l27.117.792.008-.248c10.579,4.321,28.6,3.809,41.9.58" transform="translate(-423.921 -202.002)" fill="#b0caff"/>
          <path id="Trazado_1014954" data-name="Trazado 1014954" d="M269.125,367.467s52.655,33.8,65.866,50.1c15.009,18.524-13.381,43.353-31.2,28.841a440.008,440.008,0,0,1-47.363-45.422Z" transform="translate(-180.455 -258.591)" fill="#ffb5b6"/>
          <path id="Trazado_1014955" data-name="Trazado 1014955" d="M861.786,353.622c13.5,13.516,34.717,38.2,42.255,56.24,13.463,32.218-28.7,33.371-44.165,8.044-8.584-16.324-24.667-52.875-25.277-54.9-.085-25.138,15.972-20.609,27.186-9.385" transform="translate(-587.318 -242.512)" fill="#ffb5b6"/>
          <path id="Trazado_1014956" data-name="Trazado 1014956" d="M791.718,294.549c.209,1.728-1.016,20.058-.985,23.4.138,14.848,27.165,51.477,27.165,51.477,1.7.429,26.139-13.949,38.253-24.019-1.2-7.364-32.229-43.164-44.187-47.536-11.618-4.248-17.618-3.564-20.246-3.32" transform="translate(-556.449 -207.142)" fill="#b0caff"/>
          <path id="Trazado_1014957" data-name="Trazado 1014957" d="M880.808,461.026a.1.1,0,0,1-.039-.2c9.209-3.682,25.287-15.427,29.16-21.3a.1.1,0,0,1,.173.114c-3.888,5.9-20.02,17.686-29.256,21.379a.11.11,0,0,1-.038.007" transform="translate(-619.763 -309.267)" fill="#fff"/>
          <path id="Trazado_1014958" data-name="Trazado 1014958" d="M879.225,484.337,870,461.132l1.992,23.319,1.687,2.337a24.38,24.38,0,0,0,5.544-2.451" transform="translate(-612.232 -324.505)" fill="#160959"/>
          <rect id="Rectángulo_461784" data-name="Rectángulo 461784" width="2.611" height="15.796" transform="translate(226.746 164.099)" fill="#160959"/>
          <path id="Trazado_1014959" data-name="Trazado 1014959" d="M315.83,361.83h4.927V398.9H315.83c-3.256,0-5.895-3.381-5.895-7.552V369.382c0-4.171,2.639-7.552,5.895-7.552" transform="translate(-218.105 -254.625)" fill="#160959"/>
          <path id="Trazado_1014960" data-name="Trazado 1014960" d="M721.623,380.819H745.43a2.2,2.2,0,0,0,2.2-2.2V314.674a2.2,2.2,0,0,0-2.2-2.2H721.623a2.2,2.2,0,0,0-2.2,2.2v63.942a2.2,2.2,0,0,0,2.2,2.2" transform="translate(-506.266 -219.89)" fill="#668bff"/>
          <path id="Trazado_1014961" data-name="Trazado 1014961" d="M682.52,370.524h7.95V322.339h-7.95a4.238,4.238,0,0,0-4.238,4.238v39.708a4.239,4.239,0,0,0,4.238,4.238" transform="translate(-477.316 -226.834)" fill="#668bff"/>
          <path id="Trazado_1014962" data-name="Trazado 1014962" d="M497.839,380.393a113.656,113.656,0,0,1,53.463,0V343.485c-18.277,3.42-36.158,3.87-53.463,0Z" transform="translate(-350.336 -241.715)" fill="#160959"/>
          <path id="Trazado_1014963" data-name="Trazado 1014963" d="M370.2,400.564h37.819V316.5a4.032,4.032,0,0,0-4.032-4.032H374.228A4.032,4.032,0,0,0,370.2,316.5Z" transform="translate(-260.512 -219.89)" fill="#668bff"/>
          <path id="Trazado_1014964" data-name="Trazado 1014964" d="M346.774,392.012h3.219V343.485h-3.219a5.286,5.286,0,0,0-5.286,5.286v37.955a5.286,5.286,0,0,0,5.286,5.286" transform="translate(-240.31 -241.715)" fill="#668bff"/>
          <path id="Trazado_1014965" data-name="Trazado 1014965" d="M763.6,543.152v2.692a1.865,1.865,0,0,1-1.864,1.865H756.6a1.864,1.864,0,0,1-1.865-1.865v-2.692Z" transform="translate(-531.119 -382.223)" fill="#160959"/>
          <path id="Trazado_1014966" data-name="Trazado 1014966" d="M327.652,599.229H465.583a6.188,6.188,0,0,1,6.189,6.188v3.359H321.464v-3.359a6.188,6.188,0,0,1,6.188-6.188" transform="translate(-226.219 -421.686)" fill="#668bff"/>
          <path id="Trazado_1014967" data-name="Trazado 1014967" d="M299.054,631.451h156.5a4.9,4.9,0,0,1,4.9,4.9V641H293.689v-4.181a5.366,5.366,0,0,1,5.365-5.365" transform="translate(-206.673 -444.361)" fill="#160959"/>
          <path id="Trazado_1014968" data-name="Trazado 1014968" d="M417.046,258.133h5.636a2.251,2.251,0,0,1,2.251,2.251v13.848H414.794V260.384a2.251,2.251,0,0,1,2.251-2.251" transform="translate(-291.896 -181.652)" fill="#160959"/>
          <path id="Trazado_1014969" data-name="Trazado 1014969" d="M409.881,252.654h9.683a2.392,2.392,0,0,1,0,4.784h-9.683a2.392,2.392,0,0,1,0-4.784" transform="translate(-286.756 -177.796)" fill="#668bff"/>
          <path id="Trazado_1014970" data-name="Trazado 1014970" d="M748.68,303.037h6.534a2.034,2.034,0,0,1,2.22,1.771v1.024H746.461v-1.024a2.034,2.034,0,0,1,2.219-1.771" transform="translate(-525.295 -213.251)" fill="#160959"/>
          <path id="Trazado_1014971" data-name="Trazado 1014971" d="M412.178,366.553h5.09a4.689,4.689,0,0,1,4.689,4.689v42.946a4.689,4.689,0,0,1-4.689,4.689h-5.09a4.689,4.689,0,0,1-4.689-4.689V371.242a4.689,4.689,0,0,1,4.689-4.689" transform="translate(-286.756 -257.948)" fill="#160959"/>
          <path id="Trazado_1014972" data-name="Trazado 1014972" d="M535.729,387.314h29.428a2.9,2.9,0,0,1,2.9,2.9v4.671a2.9,2.9,0,0,1-2.9,2.9H535.729a2.9,2.9,0,0,1-2.9-2.9v-4.671a2.9,2.9,0,0,1,2.9-2.9" transform="translate(-374.956 -272.558)" fill="#668bff"/>
          <path id="Trazado_1014973" data-name="Trazado 1014973" d="M744.017,346.923a9.689,9.689,0,1,1-9.689,9.689,9.689,9.689,0,0,1,9.689-9.689" transform="translate(-516.757 -244.134)" fill="#160959"/>
          <path id="Trazado_1014974" data-name="Trazado 1014974" d="M719.175,370.381a.1.1,0,0,1-.1-.1V322.093a.1.1,0,1,1,.207,0v48.185a.1.1,0,0,1-.1.1" transform="translate(-506.02 -226.588)" fill="#160959"/>
          <path id="Trazado_1014975" data-name="Trazado 1014975" d="M369.949,391.869a.1.1,0,0,1-.1-.1V343.239a.1.1,0,0,1,.207,0v48.527a.1.1,0,0,1-.1.1" transform="translate(-260.265 -241.469)" fill="#160959"/>
          <path id="Trazado_1014976" data-name="Trazado 1014976" d="M746.978,518.494h-26.16a.1.1,0,0,1,0-.207h26.16a.1.1,0,0,1,0,.207" transform="translate(-507.176 -364.726)" fill="#160959"/>
          <path id="Trazado_1014977" data-name="Trazado 1014977" d="M668.73,640.664c-.7-3.434-10.276-13.078-12.268-15.961a43.609,43.609,0,0,1-7.786-25.522l-63.142.014c2.622.553,19.2,4.272,21.637,5.354,4.356,1.929,6.362,6.694,4.391,15.906-.953,4.456,6.862,13.713,9.855,17.151,6.531,7.8-3.252,8.443,4.685,23.173,25.365-13.681,20.939-.328,42.628-2.9-2.365-3.974.2-2.915,0-17.217" transform="translate(-412.049 -421.652)" fill="#ffc83d"/>
          <path id="Trazado_1014978" data-name="Trazado 1014978" d="M870.239,595.5s29.094-2.667,41.072-10.3c17.179-10.944,12.491-29.771-6.422-33.827-7.832-1.68-48.434,17.812-48.434,17.812Z" transform="translate(-602.699 -387.94)" fill="#ffb5b6"/>
          <path id="Trazado_1014979" data-name="Trazado 1014979" d="M825.551,669.718a4.572,4.572,0,0,0,2.547-1.727l12.39-15.66a4.591,4.591,0,1,0-7.4-5.433l-12.39,15.66a4.591,4.591,0,0,0,4.854,7.16" transform="translate(-576.909 -453.911)" fill="#ffb5b6"/>
          <path id="Trazado_1014980" data-name="Trazado 1014980" d="M831.116,584.923c6.114-6.542,26.079,3.04,29.98,3.747l10.838,19.982c-17.755,22.426-22.015,4.4-34.255,8.771-6.825,2.439-6.563-32.5-6.563-32.5" transform="translate(-584.867 -410.018)" fill="#ffb5b6"/>
          <path id="Trazado_1014981" data-name="Trazado 1014981" d="M800.163,651.868a4.567,4.567,0,0,0,2.2-1.657l13.9-16.918a4.591,4.591,0,1,0-7.47-5.339l-13.9,16.918a4.591,4.591,0,0,0,5.272,7" transform="translate(-558.773 -440.548)" fill="#ffb5b6"/>
          <path id="Trazado_1014982" data-name="Trazado 1014982" d="M776.284,632.647a4.567,4.567,0,0,0,2.17-1.62l15.968-19.211a4.591,4.591,0,0,0-7.416-5.413c-6.075,4.905-11.315,11.474-15.968,19.211a4.591,4.591,0,0,0,5.246,7.032" transform="translate(-541.968 -425.408)" fill="#ffb5b6"/>
          <path id="Trazado_1014983" data-name="Trazado 1014983" d="M746.78,598.5c6.842-2.515,23.768-7.469,24.31-7.324,4.423,3.767,10.391-3.164,5.965-6.977-2.392-5.794-30.419,1.493-38.038,7.94-4.661,3.944.713,8.953,7.763,6.361" transform="translate(-518.827 -409.626)" fill="#ffb5b6"/>
          <path id="Trazado_1014984" data-name="Trazado 1014984" d="M770.812,631.742a.152.152,0,0,1-.067-.016.148.148,0,0,1-.065-.2c3.625-7.139,10.681-16.583,16.617-20.025a.148.148,0,0,1,.148.257c-5.887,3.413-12.9,12.8-16.5,19.9a.148.148,0,0,1-.132.081" transform="translate(-542.326 -430.309)" fill="#160959"/>
          <path id="Trazado_1014985" data-name="Trazado 1014985" d="M793.7,656.965a.148.148,0,0,1-.123-.231c5.833-8.62,10.711-14.079,15.352-17.18a.148.148,0,0,1,.164.246c-4.608,3.079-9.46,8.513-15.271,17.1a.147.147,0,0,1-.122.065" transform="translate(-558.433 -450.045)" fill="#160959"/>
          <path id="Trazado_1014986" data-name="Trazado 1014986" d="M819.675,681.249a.145.145,0,0,1-.082-.025.148.148,0,0,1-.04-.206l.342-.51c2.72-4.05,6.105-9.09,9.993-11.871a.148.148,0,0,1,.172.241c-3.845,2.75-7.213,7.765-9.92,11.8l-.342.51a.149.149,0,0,1-.123.065" transform="translate(-576.712 -470.51)" fill="#160959"/>
          <path id="Trazado_1014987" data-name="Trazado 1014987" d="M745,628.2a6.82,6.82,0,0,1-4.616-1.433.148.148,0,0,1,.2-.22c1.989,1.8,5.722,1.558,8.552.734,2.07-.6,3.8-1.225,5.477-1.825a64.076,64.076,0,0,1,6.784-2.141.148.148,0,0,1,.07.288,63.869,63.869,0,0,0-6.754,2.132c-1.679.6-3.415,1.225-5.494,1.831A15.45,15.45,0,0,1,745,628.2" transform="translate(-520.98 -438.63)" fill="#160959"/>
          <path id="Trazado_1014988" data-name="Trazado 1014988" d="M303.47,443.012a4.021,4.021,0,0,1-2.681.377l-17.324-2.9a4.038,4.038,0,0,1,1.622-7.912l17.324,2.9a4.038,4.038,0,0,1,1.06,7.535" transform="translate(-197.206 -304.351)" fill="#ffb5b6"/>
          <path id="Trazado_1014989" data-name="Trazado 1014989" d="M252.865,368.674c-7.919-.036-11.485,7.96-12.265,10.325-2.346,7.1-1.714,15.837,1.069,20,6.729,10.06,10,.7,21.876-1.915,6.62-1.459-10.68-28.409-10.68-28.409" transform="translate(-168.299 -259.441)" fill="#ffb5b6"/>
          <path id="Trazado_1014990" data-name="Trazado 1014990" d="M309.48,418.69a4.017,4.017,0,0,1-2.366.509l-19.255-.482a4.038,4.038,0,1,1,.745-8.042l19.255.482a4.038,4.038,0,0,1,1.622,7.533" transform="translate(-199.99 -288.986)" fill="#ffb5b6"/>
          <path id="Trazado_1014991" data-name="Trazado 1014991" d="M307.6,393.209a4.02,4.02,0,0,1-2.326.513l-21.971-.426a4.038,4.038,0,0,1,.665-8.049c6.759-1.221,14.145-.929,21.971.426a4.039,4.039,0,0,1,1.662,7.537" transform="translate(-196.758 -270.56)" fill="#ffb5b6"/>
          <path id="Trazado_1014992" data-name="Trazado 1014992" d="M282.111,336.261c-5.79,2.755-19.318,10.351-19.559,10.781-.352,5.1-8.381,4.588-8.056-.54-2.172-5.068,19.651-18.209,28.391-19.035,5.346-.505,5.191,5.955-.776,8.794" transform="translate(-178.985 -230.423)" fill="#ffb5b6"/>
          <path id="Trazado_1014993" data-name="Trazado 1014993" d="M318.308,385.707a.153.153,0,0,1-.062-.013c-2.752-1.261-17.194-2.74-23.481-.654a.148.148,0,0,1-.093-.281c6.341-2.1,20.919-.608,23.7.665a.148.148,0,0,1-.062.283" transform="translate(-207.293 -270.021)" fill="#160959"/>
          <path id="Trazado_1014994" data-name="Trazado 1014994" d="M302.638,413.568a.148.148,0,0,1-.039-.291c4.735-1.3,11.177-1.41,20.271-.333a.148.148,0,1,1-.035.294c-9.056-1.073-15.461-.969-20.158.324a.143.143,0,0,1-.04.006" transform="translate(-212.866 -290.077)" fill="#160959"/>
          <path id="Trazado_1014995" data-name="Trazado 1014995" d="M327.156,439.983a.149.149,0,0,1-.06-.013,31.735,31.735,0,0,0-13.925-1.96.148.148,0,0,1-.036-.294,32.1,32.1,0,0,1,14.08,1.984.148.148,0,0,1-.06.284" transform="translate(-220.266 -307.928)" fill="#160959"/>
          <path id="Trazado_1014996" data-name="Trazado 1014996" d="M294.718,352.176a.148.148,0,0,1-.078-.274c3.667-2.28,12.577-7.3,15.5-8.948,2.255-1.27,4.7-3.465,4.79-5.815a.15.15,0,0,1,.154-.142.148.148,0,0,1,.142.154c-.1,2.472-2.617,4.752-4.941,6.061-2.926,1.649-11.832,6.665-15.494,8.942a.143.143,0,0,1-.078.023" transform="translate(-207.293 -237.149)" fill="#160959"/>
          <path id="Trazado_1014997" data-name="Trazado 1014997" d="M915.894,571.751a.148.148,0,0,1-.091-.265,31.672,31.672,0,0,1,10.768-5.414.148.148,0,0,1,.08.285,31.365,31.365,0,0,0-10.667,5.363.146.146,0,0,1-.09.031" transform="translate(-644.422 -398.349)" fill="#160959"/>
          <path id="Trazado_1014998" data-name="Trazado 1014998" d="M712.75,132.113s-.948-19.931-19.351-20.145c-19.638-.228-19.956,19.615-19.956,19.615s.388-25.146,21.935-22.9c19.17,1.994,17.373,23.434,17.373,23.434" transform="translate(-473.91 -76.379)" fill="#ffc830"/>
          <path id="Trazado_1014999" data-name="Trazado 1014999" d="M705.162,80.56c-.745-2.919-4.819-13.213-16.362-8.271,0,0,3.474,2.467,4.216,5.314,1.064,4.079,4.147,4.922,8.339,5.146l3.8-1.406,3.757,1.508c4.2-.111,7.3-.871,8.475-4.92.819-2.826,4.358-5.2,4.358-5.2-11.406-5.252-15.755,4.929-16.579,7.827" transform="translate(-484.718 -49.941)" fill="#ffc830"/>
          <path id="Trazado_1015000" data-name="Trazado 1015000" d="M749.536,91.906l-.02,0a.1.1,0,0,1-.082-.121,7.637,7.637,0,0,1,1.042-2.645,10.121,10.121,0,0,1,2.272-2.463,30.416,30.416,0,0,1,2.747-1.9.1.1,0,1,1,.112.175,30.271,30.271,0,0,0-2.729,1.889,9.915,9.915,0,0,0-2.226,2.412,7.536,7.536,0,0,0-1.014,2.574.1.1,0,0,1-.1.084" transform="translate(-527.385 -59.644)" fill="#160959"/>
          <path id="Trazado_1015001" data-name="Trazado 1015001" d="M722.128,91.906a.1.1,0,0,1-.1-.084,7.53,7.53,0,0,0-1.014-2.574,9.916,9.916,0,0,0-2.226-2.412,30.264,30.264,0,0,0-2.729-1.889.1.1,0,1,1,.111-.175,30.475,30.475,0,0,1,2.747,1.9,10.127,10.127,0,0,1,2.272,2.463,7.647,7.647,0,0,1,1.042,2.645.1.1,0,0,1-.082.121h-.02" transform="translate(-503.866 -59.644)" fill="#160959"/>
          <path id="Trazado_1015002" data-name="Trazado 1015002" d="M739.285,101.15a2.782,2.782,0,1,1-2.743-2.713,2.729,2.729,0,0,1,2.743,2.713" transform="translate(-516.333 -69.272)" fill="#ffe863"/>
          <path id="Trazado_1015003" data-name="Trazado 1015003" d="M193.9,651.383c0,5.5-8.975,2.127-20.693,2.127s-21.742,3.978-21.742-2.127c0-8.1,8.785-16.493,21.217-16.493,12.35,0,21.218,8.391,21.218,16.493" transform="translate(-106.587 -446.781)" fill="#ffc83d"/>
          <path id="Trazado_1015004" data-name="Trazado 1015004" d="M223.95,606.921h-.187l-.269-14.753h.746Z" transform="translate(-157.276 -416.717)" fill="#160959"/>
          <path id="Trazado_1015005" data-name="Trazado 1015005" d="M222.473,589.21a1.658,1.658,0,1,1-1.658-1.658,1.658,1.658,0,0,1,1.658,1.658" transform="translate(-154.224 -413.468)" fill="#b76df7"/>
          <path id="Trazado_1015006" data-name="Trazado 1015006" d="M182.05,620.792l-.177.058L177,606.922l.708-.233Z" transform="translate(-124.559 -426.935)" fill="#160959"/>
          <path id="Trazado_1015007" data-name="Trazado 1015007" d="M176.141,603.556a1.658,1.658,0,1,1-2.093-1.056,1.658,1.658,0,0,1,2.093,1.056" transform="translate(-121.678 -423.929)" fill="#b76df7"/>
          <path id="Trazado_1015008" data-name="Trazado 1015008" d="M253.292,623.636l-.182-.04,2.932-14.461.728.161Z" transform="translate(-178.117 -428.657)" fill="#160959"/>
          <path id="Trazado_1015009" data-name="Trazado 1015009" d="M261.7,606.784a1.658,1.658,0,1,1-1.259-1.977,1.658,1.658,0,0,1,1.259,1.977" transform="translate(-181.859 -425.583)" fill="#b0caff"/>
          <path id="Trazado_1015010" data-name="Trazado 1015010" d="M207.628,636.178l-.185.025-2.248-14.583.739-.1Z" transform="translate(-144.398 -437.372)" fill="#160959"/>
          <path id="Trazado_1015011" data-name="Trazado 1015011" d="M204.279,618.5a1.658,1.658,0,1,1-1.865-1.42,1.658,1.658,0,0,1,1.865,1.42" transform="translate(-141.431 -434.237)" fill="#b0caff"/>
          <path id="Trazado_1015012" data-name="Trazado 1015012" d="M237.105,639.542l-.186-.013.761-14.736.744.052Z" transform="translate(-166.723 -439.675)" fill="#160959"/>
          <path id="Trazado_1015013" data-name="Trazado 1015013" d="M238.39,622.035a1.658,1.658,0,1,1-1.538-1.769,1.658,1.658,0,0,1,1.538,1.769" transform="translate(-165.428 -436.487)" fill="#b76df7"/>
          <path id="Trazado_1015014" data-name="Trazado 1015014" d="M162.348,643.14l-.168.081L155.5,630.065l.671-.326Z" transform="translate(-109.427 -443.156)" fill="#160959"/>
          <path id="Trazado_1015015" data-name="Trazado 1015015" d="M154.613,626.508a1.658,1.658,0,1,1-2.215-.768,1.658,1.658,0,0,1,2.215.768" transform="translate(-106.587 -440.225)" fill="#b0caff"/>
          <path id="Trazado_1015016" data-name="Trazado 1015016" d="M269.214,643.14l.168.081,6.681-13.156-.671-.326Z" transform="translate(-189.45 -443.156)" fill="#160959"/>
          <path id="Trazado_1015017" data-name="Trazado 1015017" d="M285.34,626.508a1.658,1.658,0,1,0,2.215-.768,1.658,1.658,0,0,0-2.215.768" transform="translate(-200.68 -440.225)" fill="#b76df7"/>
          <path id="Trazado_1015018" data-name="Trazado 1015018" d="M184.649,690.144h-.179a2.03,2.03,0,0,0-2.03-2.03H180.9a2.191,2.191,0,0,0-4.36,0h-2.59a2.191,2.191,0,0,0-4.36,0H167a2.191,2.191,0,0,0-4.36,0h-2.59a2.191,2.191,0,0,0-4.36,0H153.1a2.191,2.191,0,0,0-4.36,0h-2.59a2.191,2.191,0,0,0-4.36,0h-1.539a2.03,2.03,0,0,0-2.03,2.03h-.179a2.686,2.686,0,0,0-2.686,2.686v.655h51.978v-.655a2.685,2.685,0,0,0-2.686-2.686" transform="translate(-95.252 -482.848)" fill="#160959"/>
          <rect id="Rectángulo_461785" data-name="Rectángulo 461785" width="34.216" height="17.74" transform="matrix(0.002, -1, 1, 0.002, 117.193, 209.681)" fill="#ffc83d"/>
          <path id="Trazado_1015019" data-name="Trazado 1015019" d="M409.95,679.094c1.158.116,2.283.171,3.361.177v-.777a29.394,29.394,0,0,1-17.731-5.628v.935a29.077,29.077,0,0,0,14.369,5.293" transform="translate(-278.376 -473.505)" fill="#fab300"/>
          <path id="Trazado_1015020" data-name="Trazado 1015020" d="M408.865,688.564a36.247,36.247,0,0,0,4.43.169v-.777c-6.167.2-12.943-1.476-17.732-4.853v.9a29.354,29.354,0,0,0,13.3,4.559" transform="translate(-278.363 -480.709)" fill="#fab300"/>
          <path id="Trazado_1015021" data-name="Trazado 1015021" d="M396.562,695.8c2.4,1.431,5.257,2.832,8.164,2.452a27.141,27.141,0,0,1-9.183-3.992l0,.9q.5.332,1.02.637" transform="translate(-278.348 -488.56)" fill="#fab300"/>
          <path id="Trazado_1015022" data-name="Trazado 1015022" d="M398.159,601.635a29,29,0,0,0,12.94-9.406l-1,0q-.5.6-1.024,1.173-.628-.559-1.243-1.177l-1.114,0q.863.917,1.813,1.76-.835.871-1.714,1.651a26.493,26.493,0,0,1-3.226-3.416l-.951,0a27.621,27.621,0,0,0,3.6,3.919q-.794.671-1.623,1.269a26.273,26.273,0,0,1-4.435-5.192h-.894a27.331,27.331,0,0,0,4.694,5.641q-.732.5-1.489.943a27.018,27.018,0,0,1-5.1-6.587h-.905a27.377,27.377,0,0,0,5.277,7q-.813.445-1.656.831a26.324,26.324,0,0,1-4.425-5.855l0,1.48a27.308,27.308,0,0,0,3.688,4.7q-.875.37-1.778.674a26.24,26.24,0,0,1-1.915-2.323l0,1.237q.542.688,1.13,1.34-.562.17-1.133.318v.782c.847-.216,1.673-.465,2.493-.755" transform="translate(-278.435 -416.741)" fill="#fab300"/>
          <path id="Trazado_1015023" data-name="Trazado 1015023" d="M397.029,604.571a27.377,27.377,0,0,0,8.084-3.5h0a31.038,31.038,0,0,0,8.3-7.943V592.3h-.368a28.149,28.149,0,0,1-17.394,11.808v.777c.463-.1.922-.2,1.378-.317" transform="translate(-278.425 -416.811)" fill="#fab300"/>
          <path id="Trazado_1015024" data-name="Trazado 1015024" d="M398.23,614.868a28.461,28.461,0,0,0,14.833-9.353c.11.068.221.132.333.2v-.595l0-1.244a31.03,31.03,0,0,1-5.3,5.356h0a26.676,26.676,0,0,1-12.457,5.387v.775c.871-.136,1.744-.312,2.592-.524" transform="translate(-278.416 -424.954)" fill="#fab300"/>
          <path id="Trazado_1015025" data-name="Trazado 1015025" d="M398.471,626.094a28.091,28.091,0,0,0,14.676-8.231c.078.039.155.078.234.116v-.363l0-1.158a27.814,27.814,0,0,1-17.757,9.3v.789c.963-.107,1.9-.256,2.846-.453" transform="translate(-278.407 -433.81)" fill="#fab300"/>
          <path id="Trazado_1015026" data-name="Trazado 1015026" d="M397.675,637.017a27.988,27.988,0,0,0,15.692-7.5v-1.074a27.117,27.117,0,0,1-9.9,6.378c-.318.116-.64.227-.963.33a28.868,28.868,0,0,1-6.893,1.3v.772q1.037-.072,2.062-.21" transform="translate(-278.398 -442.247)" fill="#fab300"/>
          <path id="Trazado_1015027" data-name="Trazado 1015027" d="M399.346,647.117a27.785,27.785,0,0,0,11.443-4.341h0a28.536,28.536,0,0,0,2.56-1.913l0-1.009a26.826,26.826,0,0,1-7.776,4.821,28.73,28.73,0,0,1-9.736,1.987c-.08-.066-.16-.132-.241-.2v.982a31.494,31.494,0,0,0,3.747-.326" transform="translate(-278.388 -450.274)" fill="#fab300"/>
          <path id="Trazado_1015028" data-name="Trazado 1015028" d="M398.028,658.609h0a30.291,30.291,0,0,0,15.293,4.517v-.777a29.4,29.4,0,0,1-13.845-3.8,30.778,30.778,0,0,0,3.078-.343,31.08,31.08,0,0,0,10.77,2.6v-.78a31.044,31.044,0,0,1-9.423-2.071,27.421,27.421,0,0,0,2.965-.789,31.663,31.663,0,0,0,6.461,1.288v-.78a32.175,32.175,0,0,1-5.225-.943c.875-.33,1.725-.7,2.561-1.117q1.308.28,2.667.454v-.782q-.8-.1-1.586-.245c.539-.3,1.066-.619,1.586-.96V653.7h0v-.519c-.187.128-.376.252-.566.373h0c-.713.454-1.439.876-2.184,1.261h0q-.54.279-1.094.532h0a27.619,27.619,0,0,1-6.851,2.076,32.788,32.788,0,0,1-4.35.41l0,0q-.7.018-1.418.007h0a4.054,4.054,0,0,1-1.287-.147l0,.879c.822.041,1.633.057,2.437.042" transform="translate(-278.381 -459.649)" fill="#fab300"/>
          <path id="Trazado_1015029" data-name="Trazado 1015029" d="M392.2,586.694h0a1.453,1.453,0,0,1,1.456-1.451l16.93.03a1.453,1.453,0,0,1-.005,2.906l-16.93-.03a1.453,1.453,0,0,1-1.451-1.456" transform="translate(-275.993 -411.843)" fill="#fff"/>
          <path id="Trazado_1015030" data-name="Trazado 1015030" d="M391.98,707.822h0a1.453,1.453,0,0,1,1.456-1.451l16.93.03a1.453,1.453,0,0,1-.005,2.906l-16.93-.03a1.454,1.454,0,0,1-1.451-1.456" transform="translate(-275.842 -497.083)" fill="#fff"/>
          <path id="Trazado_1015031" data-name="Trazado 1015031" d="M472.662,690.851c-.16.614-.984.919-1.491,1.178a16.652,16.652,0,0,1-2.44,1.034,9.125,9.125,0,0,1-5.087.315c-2.982-.771-4.535-3.688-7.026-5.259a10.853,10.853,0,0,0-5.56-1.279c-.946-.036-.945,1.434,0,1.47a9.271,9.271,0,0,1,4.908,1.136,25.842,25.842,0,0,1,3.313,2.988,9.147,9.147,0,0,0,4.287,2.436,10.782,10.782,0,0,0,5.62-.41,19.689,19.689,0,0,0,2.967-1.286,3.315,3.315,0,0,0,1.926-1.932.735.735,0,0,0-1.417-.391" transform="translate(-316.917 -483.338)" fill="#ffc83d"/>
          <path id="Trazado_1015032" data-name="Trazado 1015032" d="M1083.405,504.07a4.338,4.338,0,0,0,1.717.642c7.445-.371,14.829-6.4,16.557-13.632-.01.005-.022.007-.032.012-4.926,1.919-10.655,1.762-15.034,4.8-2.531,1.476-5.944,6.28-3.208,8.174" transform="translate(-761.696 -345.58)" fill="#b76df7"/>
          <path id="Trazado_1015033" data-name="Trazado 1015033" d="M1065.145,419.065c.125.61.376.884.714.9,1.892.11,6.506-7.664,6.9-8.721,4.328-8.868,4.49-18.956,4.249-28.653a34.486,34.486,0,0,0-11.865,36.474" transform="translate(-748.649 -269.234)" fill="#b76df7"/>
          <path id="Trazado_1015034" data-name="Trazado 1015034" d="M1025.415,414.92s.04-.212.1-.61c.575-3.739,3-23.986-8.515-40.743a130.159,130.159,0,0,0-1.444,15.1c-1.165,9.369,3.5,19.671,9.859,26.252" transform="translate(-714.535 -262.885)" fill="#b76df7"/>
          <path id="Trazado_1015035" data-name="Trazado 1015035" d="M991.686,507.413c.1-.022.2-.047.293-.071,3.354-11.29-12.338-7.151-17.52-12.114-.067-.063-.132-.126-.193-.193-.044-.043-.084-.087-.124-.133.005.06.012.12.02.18a14.714,14.714,0,0,0,17.523,12.331" transform="translate(-685.518 -348.269)" fill="#b76df7"/>
          <path id="Trazado_1015036" data-name="Trazado 1015036" d="M1085.805,504.07a4.338,4.338,0,0,0,1.717.642c7.444-.371,14.829-6.4,16.557-13.632-.01.005-.022.007-.032.012-4.4,5.63-12.826,6.8-17.617,12.159a6.057,6.057,0,0,0-.625.819" transform="translate(-764.096 -345.58)" fill="#b76df7"/>
          <path id="Trazado_1015037" data-name="Trazado 1015037" d="M1070.619,419.966c1.892.11,6.506-7.664,6.9-8.721,4.328-8.868,4.49-18.956,4.249-28.653-2.2,6.31-5.008,13.251-7.3,19.526a55.787,55.787,0,0,0-3.848,17.849" transform="translate(-753.409 -269.234)" fill="#b76df7"/>
          <path id="Trazado_1015038" data-name="Trazado 1015038" d="M1025.415,414.921s.04-.212.1-.61a13.262,13.262,0,0,1-1.745-2.282,17.6,17.6,0,0,1-1.894-5.523c-2.185-10.685-1.22-22.662-4.876-32.937a130.159,130.159,0,0,0-1.444,15.1c-1.165,9.368,3.5,19.67,9.859,26.251" transform="translate(-714.535 -262.886)" fill="#b76df7"/>
          <path id="Trazado_1015039" data-name="Trazado 1015039" d="M991.733,507.618a14.254,14.254,0,0,0-2.355-2.064,30.928,30.928,0,0,0-4.655-2.355,42.578,42.578,0,0,1-6.411-3.664,9.8,9.8,0,0,1-3.806-4.1c-.031-.08-.061-.159-.089-.239l-.1.047-.1.047a14.714,14.714,0,0,0,17.523,12.331" transform="translate(-685.565 -348.474)" fill="#b76df7"/>
          <path id="Trazado_1015040" data-name="Trazado 1015040" d="M998.833,524.91a.1.1,0,0,1-.093-.057,14.969,14.969,0,0,1-1.168-5.782c-.161-2.347-.314-4.564-1.6-6.383a12.338,12.338,0,0,0-4.7-3.447,31.554,31.554,0,0,0-3.277-1.4,24.189,24.189,0,0,1-9.15-5.719.1.1,0,1,1,.14-.153,24.012,24.012,0,0,0,9.083,5.678,31.717,31.717,0,0,1,3.3,1.413,12.49,12.49,0,0,1,4.78,3.512c1.321,1.866,1.482,4.216,1.638,6.488a14.816,14.816,0,0,0,1.146,5.7.1.1,0,0,1-.093.151" transform="translate(-688.8 -353.221)" fill="#160959"/>
          <path id="Trazado_1015041" data-name="Trazado 1015041" d="M1033.3,454.192h0a.1.1,0,0,1-.1-.107c.334-9.11.679-18.53-1.988-27.445-.552-1.846-1.241-3.683-1.908-5.459-.754-2.009-1.534-4.087-2.12-6.191a37.909,37.909,0,0,1-1.148-14.239.106.106,0,0,1,.114-.092.1.1,0,0,1,.092.114,37.69,37.69,0,0,0,1.142,14.16c.584,2.095,1.362,4.168,2.115,6.173.668,1.78,1.359,3.62,1.913,5.473,2.677,8.948,2.331,18.385,2,27.511a.1.1,0,0,1-.1.1" transform="translate(-721.871 -281.95)" fill="#160959"/>
          <path id="Trazado_1015042" data-name="Trazado 1015042" d="M1065.986,455.874a.1.1,0,0,1-.1-.089,58.447,58.447,0,0,1,2.007-25.345c.808-2.615,1.821-5.235,2.8-7.769,2.221-5.749,4.519-11.695,4.538-17.9a.1.1,0,0,1,.1-.1h0a.1.1,0,0,1,.1.1c-.02,6.242-2.324,12.205-4.553,17.972-.978,2.531-1.989,5.148-2.795,7.756a58.24,58.24,0,0,0-2,25.255.1.1,0,0,1-.088.117h-.015" transform="translate(-749.672 -284.771)" fill="#160959"/>
          <path id="Trazado_1015043" data-name="Trazado 1015043" d="M1078.49,520.271a.1.1,0,0,1-.1-.087,12.5,12.5,0,0,1,2.761-9.894,24.567,24.567,0,0,1,5.937-4.646l9.247-5.813a.1.1,0,0,1,.11.175l-9.247,5.813a24.408,24.408,0,0,0-5.889,4.6,12.288,12.288,0,0,0-2.715,9.727.1.1,0,0,1-.086.118l-.017,0" transform="translate(-758.773 -351.726)" fill="#160959"/>
          <path id="Trazado_1015044" data-name="Trazado 1015044" d="M1003.1,589.612l3.073,16.573.536,2.9,3.153,17h22.17l3.09-17,.526-2.9,3.013-16.573Z" transform="translate(-705.896 -414.918)" fill="#668bff"/>
          <path id="Trazado_1015045" data-name="Trazado 1015045" d="M1032.562,634.978a.1.1,0,0,1-.073-.031l-5.149-5.149-4.9,4.9a.1.1,0,0,1-.147,0l-5.8-5.8-3.121,3.691a.1.1,0,1,1-.158-.134l3.193-3.777a.1.1,0,0,1,.075-.037.1.1,0,0,1,.078.03l5.809,5.808,4.9-4.9a.1.1,0,0,1,.147,0l5.149,5.149,5.583-5.583a.1.1,0,0,1,.144,0l4.32,3.995a.1.1,0,1,1-.141.152l-4.246-3.927-5.586,5.586a.1.1,0,0,1-.073.031" transform="translate(-712.994 -442.383)" fill="#fff"/>
          <path id="Trazado_1015046" data-name="Trazado 1015046" d="M1035.453,663.683a.1.1,0,0,1-.073-.031l-5.149-5.149-4.9,4.9a.1.1,0,0,1-.147,0l-5.8-5.8-1.9,2.251a.1.1,0,1,1-.158-.134l1.976-2.337a.1.1,0,0,1,.075-.036.1.1,0,0,1,.078.03l5.809,5.809,4.9-4.9a.1.1,0,0,1,.147,0l5.149,5.149,5.583-5.583a.1.1,0,0,1,.137-.008l3.319,2.591a.1.1,0,1,1-.127.164l-3.247-2.535-5.592,5.592a.109.109,0,0,1-.074.03" transform="translate(-715.885 -462.583)" fill="#fff"/>
          <path id="Trazado_1015047" data-name="Trazado 1015047" d="M1037.691,591.3l24.073,6.318L1063,591.3Z" transform="translate(-730.237 -416.104)" fill="#160959"/>
          <rect id="Rectángulo_461786" data-name="Rectángulo 461786" width="41.284" height="8.656" transform="translate(294.312 166.537)" fill="#b0caff"/>
          <path id="Trazado_1015048" data-name="Trazado 1015048" d="M503.653.011a20.04,20.04,0,0,1,18.032,29.976l2.648,8.1-10.6-.373A20.04,20.04,0,1,1,503.653.011" transform="translate(-340.771 0)" fill="#668bff"/>
          <path id="Trazado_1015049" data-name="Trazado 1015049" d="M537.678,33.266c-6.695,3.083-12.057,7.975-16.764,13.329a38.135,38.135,0,0,0-8.228-3.965l-.238.255c2.623,2.346,6.893,8.425,9.6,10.75,5.314-5.447,10.754-14.566,15.894-20.138Z" transform="translate(-360.617 -23.41)" fill="#fff"/>
          <rect id="Rectángulo_461787" data-name="Rectángulo 461787" width="45.886" height="45.886" transform="translate(273.601 9.968)" fill="#ebe8ff"/>
          <rect id="Rectángulo_461788" data-name="Rectángulo 461788" width="39.312" height="39.312" transform="translate(276.888 13.255)" fill="#fff"/>
          <path id="Trazado_1015050" data-name="Trazado 1015050" d="M1001.528,78.131a.611.611,0,0,0-.678.005l-6.189-4.058A2.1,2.1,0,0,0,992.9,71.41V57.978a.611.611,0,1,0-.47,0V71.4a2.1,2.1,0,1,0,2.049,3.116l6.115,4.01a.611.611,0,1,0,.936-.4" transform="translate(-697.055 -39.974)" fill="#160959"/>
          <path id="Trazado_1015051" data-name="Trazado 1015051" d="M1024.17,272.552c-2.372-.71-4.225-3.225-4.748-6.446l-.285-1.758-.285,1.758c-.523,3.221-2.376,5.736-4.748,6.446l-1.295.387,1.295.388c2.372.71,4.225,3.225,4.748,6.446l.285,1.758.285-1.758c.523-3.221,2.376-5.736,4.748-6.446l1.295-.388Z" transform="translate(-712.727 -186.025)" fill="#ffc83d"/>
          <path id="Trazado_1015052" data-name="Trazado 1015052" d="M231.71,19.488c-2.372-.71-4.225-3.225-4.748-6.446l-.285-1.758-.285,1.758c-.523,3.221-2.376,5.736-4.748,6.446l-1.295.387,1.295.388c2.373.71,4.225,3.225,4.748,6.446l.285,1.758.285-1.758c.523-3.221,2.376-5.736,4.748-6.446L233,19.875Z" transform="translate(-155.062 -7.941)" fill="#ffc83d"/>
          <path id="Trazado_1015053" data-name="Trazado 1015053" d="M819.747,12.348a4.312,4.312,0,0,0,2.664-3.616l.16-.986.16.986a4.311,4.311,0,0,0,2.664,3.616l.727.217-.727.217A4.312,4.312,0,0,0,822.73,16.4l-.16.986-.16-.986a4.312,4.312,0,0,0-2.664-3.616l-.727-.217Z" transform="translate(-576.355 -5.451)" fill="#b76df7"/>
          <path id="Trazado_1015054" data-name="Trazado 1015054" d="M327.033,233.412A4.312,4.312,0,0,0,329.7,229.8l.16-.986.16.986a4.312,4.312,0,0,0,2.664,3.616l.727.217-.727.217a4.312,4.312,0,0,0-2.664,3.616l-.16.986-.16-.986a4.312,4.312,0,0,0-2.664-3.616l-.727-.217Z" transform="translate(-229.626 -161.017)" fill="#668bff"/>
          <path id="Trazado_1015055" data-name="Trazado 1015055" d="M334.589,784.573H291.976a.148.148,0,0,1,0-.3h42.613a.148.148,0,1,1,0,.3" transform="translate(-205.363 -551.906)" fill="#160959"/>
          <path id="Trazado_1015056" data-name="Trazado 1015056" d="M139.972,784.573H128.716a.148.148,0,1,1,0-.3h11.256a.148.148,0,1,1,0,.3" transform="translate(-90.475 -551.906)" fill="#160959"/>
        </g>
      </g>
    </g>
  </g>
</svg>
