<svg xmlns="http://www.w3.org/2000/svg" width="141.688" height="141.688" viewBox="0 0 141.688 141.688">
  <g id="Grupo_1194920" data-name="Grupo 1194920" transform="translate(-729.576 -8103.609)">
    <g id="Grupo_1177320" data-name="Grupo 1177320" transform="translate(352.85 214.941)">
      <g id="Grupo_1177319" data-name="Grupo 1177319" transform="translate(-327.941 1733.668)">
        <rect id="Rectángulo_402033" data-name="Rectángulo 402033" width="141.688" height="141.688" rx="5" transform="translate(704.668 6155)" fill="#f59e0b"/>
      </g>
    </g>
    <path id="Trazado_1015747" data-name="Trazado 1015747" d="M32.6,12.737a4.528,4.528,0,0,1-1.525,3.252,5.355,5.355,0,0,1-3.625,1.187,4.816,4.816,0,0,1-3.872-1.657,6.793,6.793,0,0,1-1.411-4.548v-.782a7.671,7.671,0,0,1,.65-3.252,4.874,4.874,0,0,1,1.859-2.158,5.207,5.207,0,0,1,2.808-.751,5.217,5.217,0,0,1,3.568,1.187,4.866,4.866,0,0,1,1.564,3.331H29.977a2.673,2.673,0,0,0-.69-1.8,2.555,2.555,0,0,0-1.806-.558,2.24,2.24,0,0,0-1.973.945,5.3,5.3,0,0,0-.672,2.931v.967a5.667,5.667,0,0,0,.628,3.032,2.2,2.2,0,0,0,1.982.958,2.6,2.6,0,0,0,1.824-.558,2.521,2.521,0,0,0,.69-1.727ZM36.841,17H34.292V3.5h2.549Zm7.6,0a2.821,2.821,0,0,1-.255-.853,3.073,3.073,0,0,1-2.4,1.028,3.376,3.376,0,0,1-2.316-.809,2.6,2.6,0,0,1-.918-2.039,2.687,2.687,0,0,1,1.121-2.32,5.529,5.529,0,0,1,3.239-.817h1.169v-.545a1.567,1.567,0,0,0-.338-1.055,1.331,1.331,0,0,0-1.068-.4,1.513,1.513,0,0,0-1.006.308,1.045,1.045,0,0,0-.365.844h-2.54a2.551,2.551,0,0,1,.51-1.529,3.37,3.37,0,0,1,1.441-1.1,5.253,5.253,0,0,1,2.092-.4A4.15,4.15,0,0,1,45.6,8.2a3.09,3.09,0,0,1,1.033,2.483V14.8a4.546,4.546,0,0,0,.378,2.048V17Zm-2.1-1.767a2.188,2.188,0,0,0,1.037-.25,1.645,1.645,0,0,0,.7-.672V12.676h-.949q-1.907,0-2.03,1.318l-.009.149a1.017,1.017,0,0,0,.334.782A1.3,1.3,0,0,0,42.343,15.233Zm11.391-.861a.818.818,0,0,0-.461-.734,5.241,5.241,0,0,0-1.481-.479Q48.4,12.447,48.4,10.276a2.613,2.613,0,0,1,1.05-2.114A4.237,4.237,0,0,1,52.2,7.314a4.56,4.56,0,0,1,2.9.853,2.687,2.687,0,0,1,1.085,2.215h-2.54a1.229,1.229,0,0,0-.352-.9,1.488,1.488,0,0,0-1.1-.356,1.52,1.52,0,0,0-.993.29.916.916,0,0,0-.352.738.783.783,0,0,0,.4.681,4.114,4.114,0,0,0,1.349.448,11.019,11.019,0,0,1,1.6.426A2.628,2.628,0,0,1,56.2,14.267a2.481,2.481,0,0,1-1.116,2.1,4.815,4.815,0,0,1-2.883.8,5.029,5.029,0,0,1-2.123-.426,3.561,3.561,0,0,1-1.455-1.169,2.716,2.716,0,0,1-.527-1.6h2.408a1.326,1.326,0,0,0,.5,1.037,1.987,1.987,0,0,0,1.248.36,1.839,1.839,0,0,0,1.1-.277A.861.861,0,0,0,53.734,14.372Zm8.481,2.8a4.668,4.668,0,0,1-3.406-1.283A4.561,4.561,0,0,1,57.5,12.474v-.246a5.745,5.745,0,0,1,.554-2.562,4.064,4.064,0,0,1,1.569-1.74,4.4,4.4,0,0,1,2.316-.611,3.947,3.947,0,0,1,3.072,1.23,5,5,0,0,1,1.121,3.489v1.037H60.071a2.36,2.36,0,0,0,.743,1.494,2.245,2.245,0,0,0,1.569.563,2.742,2.742,0,0,0,2.294-1.063l1.248,1.4a3.813,3.813,0,0,1-1.547,1.261A5.075,5.075,0,0,1,62.215,17.176Zm-.29-7.813a1.587,1.587,0,0,0-1.226.512,2.651,2.651,0,0,0-.6,1.466H63.63v-.2a1.891,1.891,0,0,0-.457-1.311A1.638,1.638,0,0,0,61.925,9.362Z" transform="translate(752.01 8137.725)" fill="#fff"/>
    <path id="Trazado_1015748" data-name="Trazado 1015748" d="M33.956,41.741a4.134,4.134,0,0,0-1.611-3.5,21.135,21.135,0,0,0-5.8-2.578,41.121,41.121,0,0,1-6.633-2.672q-6.66-3.6-6.66-9.695a9.442,9.442,0,0,1,1.786-5.653,11.649,11.649,0,0,1,5.129-3.881,19.306,19.306,0,0,1,7.506-1.4,17.573,17.573,0,0,1,7.466,1.517,11.888,11.888,0,0,1,5.089,4.283,11.208,11.208,0,0,1,1.813,6.284H33.983a5.273,5.273,0,0,0-1.692-4.176,6.955,6.955,0,0,0-4.753-1.49,7.43,7.43,0,0,0-4.592,1.249,3.939,3.939,0,0,0-1.638,3.29,3.772,3.772,0,0,0,1.92,3.2,21.694,21.694,0,0,0,5.653,2.417Q35.755,31,38.9,34.061a10.215,10.215,0,0,1,3.142,7.627A9.41,9.41,0,0,1,38.2,49.65q-3.84,2.887-10.339,2.887a19.966,19.966,0,0,1-8.218-1.652,13,13,0,0,1-5.653-4.525,11.589,11.589,0,0,1-1.947-6.66h8.083q0,6.472,7.734,6.472A7.524,7.524,0,0,0,32.345,45,3.8,3.8,0,0,0,33.956,41.741Zm33.811,0a4.134,4.134,0,0,0-1.611-3.5,21.135,21.135,0,0,0-5.8-2.578,41.121,41.121,0,0,1-6.633-2.672q-6.66-3.6-6.66-9.695a9.442,9.442,0,0,1,1.786-5.653,11.649,11.649,0,0,1,5.129-3.881,19.306,19.306,0,0,1,7.506-1.4,17.573,17.573,0,0,1,7.466,1.517,11.888,11.888,0,0,1,5.089,4.283,11.208,11.208,0,0,1,1.813,6.284H67.794A5.273,5.273,0,0,0,66.1,20.27a6.955,6.955,0,0,0-4.753-1.49,7.43,7.43,0,0,0-4.592,1.249,3.939,3.939,0,0,0-1.638,3.29,3.772,3.772,0,0,0,1.92,3.2,21.694,21.694,0,0,0,5.653,2.417Q69.566,31,72.708,34.061a10.215,10.215,0,0,1,3.142,7.627,9.41,9.41,0,0,1-3.84,7.963q-3.84,2.887-10.339,2.887a19.966,19.966,0,0,1-8.218-1.652A13,13,0,0,1,47.8,46.36a11.589,11.589,0,0,1-1.947-6.66h8.083q0,6.472,7.734,6.472A7.524,7.524,0,0,0,66.156,45,3.8,3.8,0,0,0,67.767,41.741Z" transform="translate(753.736 8149.725)" fill="#fff"/>
  </g>
</svg>
